HIERARCHY
ROOT hip
{
  OFFSET 0 0 0
  CHANNELS 6 Xposition Yposition Zposition Zrotation Yrotation Xrotation
  JOINT abdomen
  {
    OFFSET 0 20.6881 -0.73152
    CHANNELS 3 Zrotation Xrotation Yrotation
    JOINT chest
    {
      OFFSET 0 11.7043 -0.48768
      CHANNELS 3 Zrotation Xrotation Yrotation
      JOINT neck
      {
        OFFSET 0 22.1894 -2.19456
        CHANNELS 3 Zrotation Xrotation Yrotation
        JOINT head
        {
          OFFSET -0.24384 7.07133 1.2192
          CHANNELS 3 Zrotation Xrotation Yrotation
          JOINT leftEye
          {
            OFFSET 4.14528 8.04674 8.04672
            CHANNELS 3 Zrotation Xrotation Yrotation
            End Site
            {
              OFFSET 1 0 0
            }
          }
          JOINT rightEye
          {
            OFFSET -3.6576 8.04674 8.04672
            CHANNELS 3 Zrotation Xrotation Yrotation
            End Site
            {
              OFFSET 1 0 0
            }
          }
        }
      }
      JOINT rCollar
      {
        OFFSET -2.68224 19.2634 -4.8768
        CHANNELS 3 Zrotation Xrotation Yrotation
        JOINT rShldr
        {
          OFFSET -8.77824 -1.95073 1.46304
          CHANNELS 3 Zrotation Xrotation Yrotation
          JOINT rForeArm
          {
            OFFSET -28.1742 -1.7115 0.48768
            CHANNELS 3 Zrotation Xrotation Yrotation
            JOINT rHand
            {
              OFFSET -22.5879 0.773209 7.07136
              CHANNELS 3 Zrotation Xrotation Yrotation
              JOINT rThumb1
              {
                OFFSET -1.2192 -0.487915 3.41376
                CHANNELS 3 Zrotation Xrotation Yrotation
                JOINT rThumb2
                {
                  OFFSET -3.37035 -0.52449 3.41376
                  CHANNELS 3 Zrotation Xrotation Yrotation
                  End Site
                  {
                    OFFSET -1.78271 -1.18214 1.43049
                  }
                }
              }
              JOINT rIndex1
              {
                OFFSET -7.75947 0.938293 5.60832
                CHANNELS 3 Zrotation Xrotation Yrotation
                JOINT rIndex2
                {
                  OFFSET -2.54057 -0.884171 1.56538
                  CHANNELS 3 Zrotation Xrotation Yrotation
                  End Site
                  {
                    OFFSET -1.62519 -0.234802 1.16502
                  }
                }
              }
              JOINT rMid1
              {
                OFFSET -8.24714 1.18213 3.41376
                CHANNELS 3 Zrotation Xrotation Yrotation
                JOINT rMid2
                {
                  OFFSET -3.10165 -0.590103 1.0647
                  CHANNELS 3 Zrotation Xrotation Yrotation
                  End Site
                  {
                    OFFSET -2.48547 -0.328903 0.83742
                  }
                }
              }
              JOINT rRing1
              {
                OFFSET -8.82822 0.546677 1.51678
                CHANNELS 3 Zrotation Xrotation Yrotation
                JOINT rRing2
                {
                  OFFSET -2.60934 -0.819778 -0.0198488
                  CHANNELS 3 Zrotation Xrotation Yrotation
                  End Site
                  {
                    OFFSET -2.33842 -0.294052 0.168128
                  }
                }
              }
              JOINT rPinky1
              {
                OFFSET -8.27202 -0.0477905 -0.4584
                CHANNELS 3 Zrotation Xrotation Yrotation
                JOINT rPinky2
                {
                  OFFSET -1.82734 -0.647385 -0.700984
                  CHANNELS 3 Zrotation Xrotation Yrotation
                  End Site
                  {
                    OFFSET -1.69225 -0.51767 -0.607171
                  }
                }
              }
            }
          }
        }
      }
      JOINT lCollar
      {
        OFFSET 2.68224 19.2634 -4.8768
        CHANNELS 3 Zrotation Xrotation Yrotation
        JOINT lShldr
        {
          OFFSET 8.77824 -1.95073 1.46304
          CHANNELS 3 Zrotation Xrotation Yrotation
          JOINT lForeArm
          {
            OFFSET 28.1742 -1.7115 0.48768
            CHANNELS 3 Zrotation Xrotation Yrotation
            JOINT lHand
            {
              OFFSET 22.5879 0.773209 7.07136
              CHANNELS 3 Zrotation Xrotation Yrotation
              JOINT lThumb1
              {
                OFFSET 1.2192 -0.487915 3.41376
                CHANNELS 3 Zrotation Xrotation Yrotation
                JOINT lThumb2
                {
                  OFFSET 3.37035 -0.52449 3.41376
                  CHANNELS 3 Zrotation Xrotation Yrotation
                  End Site
                  {
                    OFFSET 1.78271 -1.18214 1.43049
                  }
                }
              }
              JOINT lIndex1
              {
                OFFSET 7.75947 0.938293 5.60832
                CHANNELS 3 Zrotation Xrotation Yrotation
                JOINT lIndex2
                {
                  OFFSET 2.54057 -0.884171 1.56538
                  CHANNELS 3 Zrotation Xrotation Yrotation
                  End Site
                  {
                    OFFSET 1.62519 -0.234802 1.16502
                  }
                }
              }
              JOINT lMid1
              {
                OFFSET 8.24714 1.18213 3.41376
                CHANNELS 3 Zrotation Xrotation Yrotation
                JOINT lMid2
                {
                  OFFSET 3.10165 -0.590103 1.0647
                  CHANNELS 3 Zrotation Xrotation Yrotation
                  End Site
                  {
                    OFFSET 2.48547 -0.328903 0.83742
                  }
                }
              }
              JOINT lRing1
              {
                OFFSET 8.82822 0.546677 1.51678
                CHANNELS 3 Zrotation Xrotation Yrotation
                JOINT lRing2
                {
                  OFFSET 2.60934 -0.819778 -0.0198488
                  CHANNELS 3 Zrotation Xrotation Yrotation
                  End Site
                  {
                    OFFSET 2.33842 -0.294052 0.168128
                  }
                }
              }
              JOINT lPinky1
              {
                OFFSET 8.27202 -0.0477905 -0.4584
                CHANNELS 3 Zrotation Xrotation Yrotation
                JOINT lPinky2
                {
                  OFFSET 1.82734 -0.647385 -0.700984
                  CHANNELS 3 Zrotation Xrotation Yrotation
                  End Site
                  {
                    OFFSET 1.69225 -0.51767 -0.607171
                  }
                }
              }
            }
          }
        }
      }
    }
  }
  JOINT rButtock
  {
    OFFSET -8.77824 4.35084 1.2192
    CHANNELS 3 Zrotation Xrotation Yrotation
    JOINT rThigh
    {
      OFFSET 0 -1.70687 -2.19456
      CHANNELS 3 Zrotation Xrotation Yrotation
      JOINT rShin
      {
        OFFSET 0 -36.8199 0.73152
        CHANNELS 3 Zrotation Xrotation Yrotation
        JOINT rFoot
        {
          OFFSET 0.73152 -45.1104 -5.12064
          CHANNELS 3 Zrotation Xrotation Yrotation
          End Site
          {
            OFFSET -1.1221 -3.69964 12.103
          }
        }
      }
    }
  }
  JOINT lButtock
  {
    OFFSET 8.77824 4.35084 1.2192
    CHANNELS 3 Zrotation Xrotation Yrotation
    JOINT lThigh
    {
      OFFSET 0 -1.70687 -2.19456
      CHANNELS 3 Zrotation Xrotation Yrotation
      JOINT lShin
      {
        OFFSET 0 -36.8199 0.73152
        CHANNELS 3 Zrotation Xrotation Yrotation
        JOINT lFoot
        {
          OFFSET -0.73152 -45.1104 -5.12064
          CHANNELS 3 Zrotation Xrotation Yrotation
          End Site
          {
            OFFSET 1.1221 -3.69964 12.103
          }
        }
      }
    }
  }
}
MOTION
Frames:	6
Frame Time:	0.03333
-64.6018 57.67139999999999 33.6097 -101.45875 -74.257397 99.578511 13.116685 9.582074 125.541173 -4.566043 0.126022 -107.21456 9.048948 19.230416 74.578878 -29.228052 -2.395692 -72.147482 -0.000538 -0.0 0.003558 -0.001673 0.0 -0.003619 -33.84509 -85.665214 -55.26266 -91.208052 -41.315139 -89.935452 177.653831 -16.65664 -129.948493 -11.199798 44.471361 4.274571 -7.550837 7.246525 1.625989 -123.686913 -19.518556 108.8316 -140.684011 1.505504 116.182872 2.479684 13.053533 -6.840713 0.540507 -1.590109 -0.294197 -4.720705 20.800394 4.253373 -72.13521 72.972817 89.990687 4.977257 29.769555 -0.413873 -156.379752 53.734292 -150.119029 -162.057803 54.174237 -147.209248 142.973808 39.431535 -147.389813 -108.504726 -34.036785 -138.145607 -109.537341 -31.897884 -103.212006 166.04523 54.044065 -142.001252 -116.309837 -50.010584 -56.954091 132.712463 25.309144 -87.460871 19.170947 24.114311 -13.381213 -117.095029 -61.979185 -62.924557 125.643642 49.840054 -115.274442 161.062287 1.250815 -142.346905 0.020241 -1.725995 0.542844 -11.178624 -12.23203 1.536874 157.328009 57.246578 150.512463 -15.217332 41.782612 -6.320842 179.990828 75.749644 0.006275 122.357352 79.675864 -42.957699 -48.993406 -5.444041 -79.647163 -135.965942 36.994522 -136.756555 0.0 0.000491 -0.001655 70.188105 -47.319199 64.835461 0.998042 79.473725 -110.899086 -1.417833 36.587319 97.113463
-64.8044 57.5422 33.6701 -101.207041 -74.222309 99.434671 17.560822 10.279571 -104.111751 4.913419 -0.638897 121.954793 -1.255523 33.423926 -165.612554 6.715316 42.931435 167.519884 -0.004714 0.0 -0.003778 0.002093 0.0 0.002742 -155.416517 -2.951193 161.719451 119.068394 -50.032365 155.624681 163.277562 46.60294 107.032178 164.210266 -22.014571 144.119167 51.06064 -41.203429 12.85673 -109.343249 32.386464 82.968131 -160.015925 -33.011794 122.697962 -166.419161 -28.878464 118.682833 68.981442 -80.154876 40.575158 2.972338 0.15538 0.185789 -145.118293 0.185558 -179.186421 -151.744256 -28.607201 -174.592309 -135.065881 -13.383595 -132.470104 17.285394 43.721975 6.219084 80.166662 68.371118 -83.260837 5.539287 -6.154165 -67.588616 156.805515 -79.992468 126.675666 6.080077 29.42336 -1.971427 171.602414 -9.286637 -89.950084 91.004525 10.674247 -35.021656 172.895944 -51.894117 -120.181612 -84.462848 -68.148616 -29.595326 153.320823 13.629139 -138.862889 1.994744 14.273649 -2.924814 -0.000305 0.036269 -0.011868 154.176596 -65.01965 178.245803 0.29149 -0.753343 0.267722 146.895995 10.293529 143.363776 0.0 -0.000681 0.002091 -8.84513 9.51008 -61.551608 -30.915411 18.574645 91.06118 178.679711 -25.795118 65.670166 -0.001895 -0.000188 -0.001895 70.881666 -47.170106 65.655674 16.580726 71.410231 -35.979845 -25.098623 -11.727435 18.652712
-65.0018 57.4118 33.739999999999995 -100.711425 -74.100857 99.005714 13.044883 11.35051 76.694656 -4.962934 -4.050241 -58.326732 -1.429788 33.42532 -164.816604 7.336061 42.857293 166.402089 0.002218 0.0 0.000829 -0.002808 -0.0 0.003269 0.022938 -0.138657 -0.030855 64.54136 12.051275 -6.741905 9.103304 3.679556 53.36605 -11.372052 44.726094 4.335678 -103.199023 36.330405 60.111403 -127.703526 -15.627693 73.36937 -1.16095 1.861437 0.66727 16.736336 -7.665839 -1.28064 -167.375542 -28.008392 145.269373 -42.53954 58.276236 36.561919 -145.118076 0.227202 -179.198303 -145.772735 -49.242366 -168.093006 12.987096 44.34452 10.761815 -159.707387 52.342093 -149.394265 85.53732 68.182589 -88.68896 73.309812 15.593659 -77.228982 -3.44802 1.091969 67.990856 -159.565296 -33.678119 -140.084634 78.030188 38.689592 -42.412949 146.724036 -31.231112 -83.11335 140.763048 1.380652 -116.229298 -45.102126 -55.093123 -1.607245 -2.10096 -6.305277 1.081482 -3.410318 -0.609404 0.104876 145.123175 1.975612 179.748461 7.08866 -61.10465 27.901094 26.565654 -38.861142 25.604563 13.337837 -31.153547 15.337146 179.994065 75.750152 0.005236 116.930459 78.109973 -180.0 33.417778 -16.292006 -130.144865 155.62496 -21.177714 19.399296 179.997556 75.750152 0.002521 -140.838655 0.460497 91.273983 86.882149 -8.935785 78.228066 154.858 24.122505 164.353945
-65.1823 57.293499999999995 33.8183 -99.933836 -74.035914 98.288272 14.002206 12.549922 41.114667 -3.151125 -6.542564 -22.90659 -11.304285 21.748693 -66.689464 34.623356 1.748391 70.984183 -0.004849 -0.0 0.000554 0.000345 -0.0 -0.005508 -155.417385 -2.951431 161.718522 -50.797865 7.251527 17.113238 16.064498 -5.312953 -84.965095 163.438105 -23.894213 143.587225 1.590183 -1.57583 -0.2237 -6.398693 7.067194 4.407296 12.216577 -21.784647 -5.121373 -23.630076 38.448057 18.821332 -160.097845 -4.901152 142.969134 -167.433843 -17.359863 143.829547 -145.11899 0.185643 -179.186243 11.13191 63.107828 -0.724089 -158.216762 60.370322 -150.794769 -162.625432 55.673888 -147.308739 143.619765 38.233169 -148.080197 6.889399 -49.09089 -51.105848 112.07735 -79.093818 83.245976 3.373421 21.325343 -1.53191 68.482824 37.953431 -35.659532 -2.182225 -12.189102 -23.232129 83.733074 42.331694 -69.989892 169.472397 -18.75287 -114.272668 -2.100538 -6.305299 1.082133 -3.06957 0.403508 -0.030062 -0.005721 1.771612 -0.554987 -4.950616 -74.590498 15.029603 135.822175 -11.892503 133.185498 23.711983 -39.238347 25.54191 0.002618 -0.000125 0.001309 -8.467892 9.230677 -103.473084 -35.933553 -4.91146 129.542597 -175.285633 -16.918709 68.520951 0.0 0.001175 -0.000603 72.018337 -47.225476 76.599559 76.820442 72.273553 86.259979 13.979229 19.783581 -168.736815
-65.3614 57.1742 33.9244 -99.141026 -74.065975 97.503865 13.320118 11.284144 76.630715 -4.980892 -3.877306 -58.393725 -10.347358 19.282579 -52.017522 31.518132 -6.176406 58.061319 0.001757 -0.0 -0.003654 0.00224 0.0 0.001749 0.117806 -0.714024 -0.158369 -110.460854 4.672437 -174.59748 164.111992 -14.187302 -134.214365 -19.202254 57.384541 9.097487 116.309114 -50.009724 56.95398 -65.104715 27.974756 19.504021 -160.015601 -33.011803 122.69822 -61.262134 57.327115 46.732456 -161.155358 -8.160601 143.464087 -25.59559 49.016033 21.192171 -145.123887 1.121137 -179.481063 11.725946 26.40464 -5.987736 -135.456988 -12.621709 -132.839256 17.275121 43.724361 6.20499 153.593953 -75.693725 178.264026 71.486671 -33.830856 82.285252 -0.757974 -2.718278 67.731928 -157.440146 -37.107751 -138.594969 173.08928 -10.76462 -89.918295 126.350662 13.466952 -61.180659 46.209217 39.652383 -36.318508 12.355871 25.072625 -5.486236 0.570506 1.648355 -0.323083 25.195716 49.216021 -20.684005 0.060287 -3.510368 1.104009 156.288626 -34.938053 -175.994582 135.454697 -12.621327 132.839437 -16.559365 41.543702 -6.048469 -0.00018 -0.000285 0.000231 -9.037888 10.756938 -27.106652 -28.125014 34.623665 -64.978328 161.00176 19.804836 -56.164837 -0.0 0.001015 0.000485 74.590667 -46.438602 -20.606172 -79.964951 0.231 -0.643933 80.377373 -74.732642 174.198753
-65.51820000000001 57.06830000000001 34.023399999999995 -98.758373 -74.319864 97.153472 15.43614 13.097112 -0.0 0.315175 -7.566322 18.075783 6.682005 31.075743 148.556006 -21.264873 35.91985 -139.104309 -0.001113 -0.0 0.002146 0.004713 -0.0 -0.002114 -85.537756 68.181971 88.688777 -175.924222 -19.004292 111.989196 -33.918414 83.919872 89.182379 -7.725203 36.32739 2.867167 -107.934107 35.149647 63.317471 10.944684 -28.157056 24.992429 -172.896058 -51.894033 120.181883 -164.457602 -27.876298 118.036805 -125.642558 49.839458 115.273858 43.27067 -69.623295 17.5999 -0.000201 0.063765 0.020119 -140.368457 60.457067 154.517241 -8.188807 -17.576871 -7.727149 2.453988 -1.034453 -0.364222 78.727779 68.391114 -81.807675 101.82681 17.456093 -89.848759 -163.378633 33.19204 137.032781 19.123532 55.753774 -8.617536 156.199241 5.903397 -88.021483 134.799211 2.790428 -65.553237 -24.075326 -42.306609 5.557966 168.010435 -29.493246 -110.407473 -173.123016 -66.297752 -137.613575 175.451602 -38.981329 -143.036921 145.097823 -1.605377 178.624408 79.150687 87.679614 -92.60339 152.875486 39.991595 148.059455 24.528113 -39.116761 25.381112 0.0 0.001401 -0.001276 -8.966611 9.04239 -134.886852 -31.941342 -34.15162 23.527883 -172.008797 -61.512304 -75.458593 -0.001556 -0.001903 -0.000778 72.492855 -47.048939 67.65905 12.14928 73.992945 -47.733112 -3.907428 -6.710743 30.321507
